<svg width="16" height="16" viewBox="0 0 16 16" fill="none" xmlns="http://www.w3.org/2000/svg">
<path d="M13.6586 2.34497C12.3504 1.03584 10.6286 0.220829 8.78681 0.0387993C6.94499 -0.143231 5.09703 0.318981 3.55779 1.34668C2.01854 2.37438 0.883251 3.90399 0.345339 5.67489C-0.192574 7.44579 -0.0998253 9.34842 0.607782 11.0586C1.31539 12.7688 2.59407 14.1807 4.22598 15.0538C5.85788 15.927 7.74203 16.2072 9.55742 15.8469C11.3728 15.4866 13.0071 14.508 14.1818 13.0778C15.3566 11.6477 15.9991 9.85442 16 8.00363C16.0025 6.95257 15.7969 5.91142 15.3951 4.94021C14.9932 3.96901 14.4031 3.08697 13.6586 2.34497ZM12.9013 12.905C12.2632 13.5729 11.4979 14.1066 10.6506 14.4746C9.80332 14.8427 8.891 15.0377 7.96726 15.0482C7.04353 15.0588 6.127 14.8846 5.27152 14.5359C4.41604 14.1873 3.63887 13.6712 2.98564 13.018C2.33242 12.3647 1.81632 11.5876 1.46767 10.7321C1.11902 9.87661 0.944842 8.96009 0.955371 8.03635C0.9659 7.11261 1.16092 6.20029 1.52898 5.35298C1.89704 4.50568 2.43072 3.74046 3.09866 3.1023C3.73683 2.43436 4.50204 1.90068 5.34935 1.53262C6.19666 1.16456 7.10898 0.969536 8.03271 0.959007C8.95645 0.948478 9.87298 1.12266 10.7285 1.47131C11.5839 1.81996 12.3611 2.33606 13.0143 2.98928C13.6676 3.6425 14.1837 4.41968 14.5323 5.27516C14.881 6.13064 15.0551 7.04716 15.0446 7.9709C15.0341 8.89464 14.8391 9.80696 14.471 10.6543C14.1029 11.5016 13.5693 12.2668 12.9013 12.905ZM7.29066 4.2703C7.29066 4.13 7.33226 3.99286 7.4102 3.87621C7.48814 3.75956 7.59893 3.66865 7.72854 3.61496C7.85815 3.56127 8.00078 3.54723 8.13837 3.57459C8.27597 3.60196 8.40236 3.66952 8.50156 3.76872C8.60076 3.86793 8.66832 3.99432 8.69569 4.13191C8.72306 4.26951 8.70901 4.41213 8.65533 4.54175C8.60164 4.67136 8.51072 4.78214 8.39407 4.86009C8.27742 4.93803 8.14028 4.97963 7.99999 4.97963C7.90664 4.98034 7.81408 4.96248 7.7277 4.92708C7.64132 4.89169 7.56284 4.83946 7.49683 4.77345C7.43082 4.70744 7.3786 4.62897 7.34321 4.54258C7.30781 4.4562 7.28995 4.36365 7.29066 4.2703ZM9.59999 11.737C9.59999 11.8784 9.5438 12.0141 9.44378 12.1141C9.34376 12.2141 9.2081 12.2703 9.06665 12.2703H6.93332C6.79188 12.2703 6.65622 12.2141 6.5562 12.1141C6.45618 12.0141 6.39999 11.8784 6.39999 11.737C6.39999 11.5955 6.45618 11.4598 6.5562 11.3598C6.65622 11.2598 6.79188 11.2036 6.93332 11.2036H7.46666V7.47029H6.93332C6.79188 7.47029 6.65622 7.4141 6.5562 7.31408C6.45618 7.21406 6.39999 7.07841 6.39999 6.93696C6.39999 6.79551 6.45618 6.65986 6.5562 6.55984C6.65622 6.45982 6.79188 6.40363 6.93332 6.40363H7.99999C8.14144 6.40363 8.27709 6.45982 8.37711 6.55984C8.47713 6.65986 8.53332 6.79551 8.53332 6.93696V11.2036H9.06665C9.2081 11.2036 9.34376 11.2598 9.44378 11.3598C9.5438 11.4598 9.59999 11.5955 9.59999 11.737Z" fill="black"/>
</svg>
