<svg width="17" height="17" viewBox="0 0 17 17" fill="none" xmlns="http://www.w3.org/2000/svg">
<path d="M16 8.5C16 12.6421 12.6421 16 8.5 16C4.35786 16 1 12.6421 1 8.5C1 4.35786 4.35786 1 8.5 1C12.6421 1 16 4.35786 16 8.5Z" fill="#FF4201" stroke="#FF4201" stroke-width="1.2" stroke-linecap="round" stroke-linejoin="round"/>
<g clip-path="url(#clip0_5155_3537)">
<path d="M7.56182 11.9998C7.38117 11.9998 7.21182 11.9204 7.08763 11.7614L5.19085 9.56275C4.93117 9.25811 4.93117 8.7548 5.19085 8.43692C5.45053 8.11904 5.87956 8.13228 6.15053 8.43692L7.55053 10.0793L10.8473 6.23824C11.107 5.93361 11.5473 5.93361 11.807 6.23824C12.0667 6.54288 12.0667 7.04619 11.807 7.36407L8.0473 11.7747C7.92311 11.9204 7.75376 12.0131 7.57311 12.0131L7.56182 11.9998Z" fill="white"/>
</g>
<defs>
<clipPath id="clip0_5155_3537">
<rect width="7" height="6" fill="white" transform="translate(5 6)"/>
</clipPath>
</defs>
</svg>
