<svg width="16" height="16" viewBox="0 0 16 16" fill="none" xmlns="http://www.w3.org/2000/svg">
<path d="M8.125 8.125H8.725C8.725 7.79363 8.45637 7.525 8.125 7.525V8.125ZM8.125 11.2917H7.525C7.525 11.623 7.79363 11.8917 8.125 11.8917V11.2917ZM8.91667 11.8917C9.24804 11.8917 9.51667 11.623 9.51667 11.2917C9.51667 10.9603 9.24804 10.6917 8.91667 10.6917V11.8917ZM7.33333 7.525C7.00196 7.525 6.73333 7.79363 6.73333 8.125C6.73333 8.45637 7.00196 8.725 7.33333 8.725V7.525ZM8.125 4.35833C7.79363 4.35833 7.525 4.62696 7.525 4.95833C7.525 5.2897 7.79363 5.55833 8.125 5.55833V4.35833ZM8.13292 5.55833C8.46429 5.55833 8.73292 5.2897 8.73292 4.95833C8.73292 4.62696 8.46429 4.35833 8.13292 4.35833V5.55833ZM7.525 8.125V11.2917H8.725V8.125H7.525ZM8.125 11.8917H8.91667V10.6917H8.125V11.8917ZM8.125 7.525H7.33333V8.725H8.125V7.525ZM14.65 8.125C14.65 11.7287 11.7287 14.65 8.125 14.65V15.85C12.3914 15.85 15.85 12.3914 15.85 8.125H14.65ZM8.125 14.65C4.52134 14.65 1.6 11.7287 1.6 8.125H0.4C0.4 12.3914 3.8586 15.85 8.125 15.85V14.65ZM1.6 8.125C1.6 4.52134 4.52134 1.6 8.125 1.6V0.4C3.8586 0.4 0.4 3.8586 0.4 8.125H1.6ZM8.125 1.6C11.7287 1.6 14.65 4.52134 14.65 8.125H15.85C15.85 3.8586 12.3914 0.4 8.125 0.4V1.6ZM8.125 5.55833H8.13292V4.35833H8.125V5.55833Z" fill="#242629"/>
</svg>
