<svg width="9" height="9" viewBox="0 0 9 9" fill="none" xmlns="http://www.w3.org/2000/svg">
<path d="M0.575736 7.57574C0.341421 7.81005 0.341421 8.18995 0.575736 8.42426C0.81005 8.65858 1.18995 8.65858 1.42426 8.42426L0.575736 7.57574ZM8.42426 1.42426C8.65858 1.18995 8.65858 0.810051 8.42426 0.575736C8.18995 0.341422 7.81005 0.341422 7.57574 0.575736L8.42426 1.42426ZM1.42426 0.575736C1.18995 0.341421 0.810051 0.341421 0.575736 0.575736C0.341421 0.81005 0.341421 1.18995 0.575736 1.42426L1.42426 0.575736ZM7.57574 8.42426C7.81005 8.65858 8.18995 8.65858 8.42426 8.42426C8.65858 8.18995 8.65858 7.81005 8.42426 7.57574L7.57574 8.42426ZM1.42426 8.42426L8.42426 1.42426L7.57574 0.575736L0.575736 7.57574L1.42426 8.42426ZM0.575736 1.42426L7.57574 8.42426L8.42426 7.57574L1.42426 0.575736L0.575736 1.42426Z" fill="#222222"/>
</svg>
