<svg width="17" height="17" viewBox="0 0 17 17" fill="none" xmlns="http://www.w3.org/2000/svg">
<path d="M9.1 6C9.1 5.66863 8.83137 5.4 8.5 5.4C8.16863 5.4 7.9 5.66863 7.9 6H9.1ZM7.9 11C7.9 11.3314 8.16863 11.6 8.5 11.6C8.83137 11.6 9.1 11.3314 9.1 11H7.9ZM11 9.1C11.3314 9.1 11.6 8.83137 11.6 8.5C11.6 8.16863 11.3314 7.9 11 7.9V9.1ZM6 7.9C5.66863 7.9 5.4 8.16863 5.4 8.5C5.4 8.83137 5.66863 9.1 6 9.1V7.9ZM7.9 6V8.5H9.1V6H7.9ZM7.9 8.5V11H9.1V8.5H7.9ZM11 7.9H8.5V9.1H11V7.9ZM8.5 7.9H6V9.1H8.5V7.9ZM15.4 8.5C15.4 12.3108 12.3108 15.4 8.5 15.4V16.6C12.9735 16.6 16.6 12.9735 16.6 8.5H15.4ZM8.5 15.4C4.68923 15.4 1.6 12.3108 1.6 8.5H0.4C0.4 12.9735 4.02649 16.6 8.5 16.6V15.4ZM1.6 8.5C1.6 4.68923 4.68923 1.6 8.5 1.6V0.4C4.02649 0.4 0.4 4.02649 0.4 8.5H1.6ZM8.5 1.6C12.3108 1.6 15.4 4.68923 15.4 8.5H16.6C16.6 4.02649 12.9735 0.4 8.5 0.4V1.6Z" fill="#FF4201"/>
</svg>
